<svg width="960" height="600" version="1.1" xmlns="http://www.w3.org/2000/svg"><g></g><g transform="translate(480,300)scale(1.696113109588623,1.696113109588623)"><text text-anchor="middle" transform="translate(-59,-131)rotate(-59.999999554707955)scale(0.9999999865388264,0.9999999865388264)" style="font-size: 10px; font-family: Impact; fill: rgb(57, 59, 121);">JavaScript</text><text text-anchor="middle" transform="translate(55,0)rotate(59.99999955470795)scale(0.9999999865388264,0.9999999865388264)" style="font-size: 10px; font-family: Impact; fill: rgb(82, 84, 163);"></text><text text-anchor="middle" transform="translate(11,-5)rotate(59.999999554707955)scale(0.9999999865388264,0.9999999865388264)" style="font-size: 10px; font-family: Impact; fill: rgb(107, 110, 207);">Pulumi</text><text text-anchor="middle" transform="translate(-49,-41)rotate(30.00000044529205)scale(0.9999999865388264,0.9999999865388264)" style="font-size: 10px; font-family: Impact; fill: rgb(156, 158, 222);">Kubernetes</text><text text-anchor="middle" transform="translate(84,-8)rotate(59.99999955470795)scale(0.9999999865388264,0.9999999865388264)" style="font-size: 10px; font-family: Impact; fill: rgb(99, 121, 57);">Helm</text><text text-anchor="middle" transform="translate(113,26)rotate(-30.00000044529205)scale(0.9999999865388264,0.9999999865388264)" style="font-size: 10px; font-family: Impact; fill: rgb(140, 162, 82);">CTFd</text><text text-anchor="middle" transform="translate(-110,-77)rotate(30.00000044529205)scale(0.9999999865388264,0.9999999865388264)" style="font-size: 10px; font-family: Impact; fill: rgb(181, 207, 107);">Smallstep</text><text text-anchor="middle" transform="translate(72,-117)rotate(-59.99999955470795)scale(0.9999999865388264,0.9999999865388264)" style="font-size: 10px; font-family: Impact; fill: rgb(206, 219, 156);">Keycloak</text><text text-anchor="middle" transform="translate(107,-92)rotate(59.999999554707955)scale(0.9999999865388264,0.9999999865388264)" style="font-size: 10px; font-family: Impact; fill: rgb(140, 109, 49);">Grafana</text><text text-anchor="middle" transform="translate(24,-116)rotate(-30.00000044529205)scale(0.9999999865388264,0.9999999865388264)" style="font-size: 10px; font-family: Impact; fill: rgb(189, 158, 57);">Prometheus</text><text text-anchor="middle" transform="translate(162,31)rotate(-30.00000044529205)scale(0.9999999865388264,0.9999999865388264)" style="font-size: 10px; font-family: Impact; fill: rgb(231, 186, 82);">TypeScript</text><text text-anchor="middle" transform="translate(-95,-99)rotate(-59.99999955470795)scale(0.9999999865388264,0.9999999865388264)" style="font-size: 10px; font-family: Impact; fill: rgb(231, 203, 148);">Python</text><text text-anchor="middle" transform="translate(-39,-118)rotate(-30.00000044529205)scale(0.9999999865388264,0.9999999865388264)" style="font-size: 10px; font-family: Impact; fill: rgb(132, 60, 57);">LaTeX</text><text text-anchor="middle" transform="translate(-156,52)rotate(-59.999999554707955)scale(0.9999999865388264,0.9999999865388264)" style="font-size: 10px; font-family: Impact; fill: rgb(173, 73, 74);">Git</text><text text-anchor="middle" transform="translate(-24,-89)rotate(-30.00000044529205)scale(0.9999999865388264,0.9999999865388264)" style="font-size: 10px; font-family: Impact; fill: rgb(214, 97, 107);">NGINX</text><text text-anchor="middle" transform="translate(225,70)rotate(-59.99999955470795)scale(0.9999999865388264,0.9999999865388264)" style="font-size: 10px; font-family: Impact; fill: rgb(231, 150, 156);">Dependabot</text><text text-anchor="middle" transform="translate(-137,-65)rotate(59.99999955470795)scale(0.9999999865388264,0.9999999865388264)" style="font-size: 10px; font-family: Impact; fill: rgb(123, 65, 115);">SonarCloud</text><text text-anchor="middle" transform="translate(-78,-130)rotate(-59.999999554707955)scale(0.9999999865388264,0.9999999865388264)" style="font-size: 10px; font-family: Impact; fill: rgb(165, 81, 148);">SSLH</text><text text-anchor="middle" transform="translate(-66,23)rotate(59.99999955470795)scale(0.9999999865388264,0.9999999865388264)" style="font-size: 10px; font-family: Impact; fill: rgb(206, 109, 189);">Ansible</text><text text-anchor="middle" transform="translate(-11,104)rotate(59.99999955470795)scale(0.9999999865388264,0.9999999865388264)" style="font-size: 10px; font-family: Impact; fill: rgb(222, 158, 214);">GitHub Actions</text><text text-anchor="middle" transform="translate(201,68)rotate(-30.00000044529205)scale(0.9999999865388264,0.9999999865388264)" style="font-size: 10px; font-family: Impact; fill: rgb(57, 59, 121);">OpenSSH</text><text text-anchor="middle" transform="translate(-165,122)rotate(0)scale(1,1)" style="font-size: 10px; font-family: Impact; fill: rgb(82, 84, 163);">Jekyll</text><text text-anchor="middle" transform="translate(68,33)rotate(59.999999554707955)scale(0.9999999865388264,0.9999999865388264)" style="font-size: 10px; font-family: Impact; fill: rgb(107, 110, 207);">CSS</text><text text-anchor="middle" transform="translate(25,106)rotate(30.00000044529205)scale(0.9999999865388264,0.9999999865388264)" style="font-size: 10px; font-family: Impact; fill: rgb(156, 158, 222);">HTML</text><text text-anchor="middle" transform="translate(-196,37)rotate(-30.000000445292052)scale(0.9999999865388264,0.9999999865388264)" style="font-size: 10px; font-family: Impact; fill: rgb(99, 121, 57);">Gulp</text><text text-anchor="middle" transform="translate(189,36)rotate(59.99999955470795)scale(0.9999999865388264,0.9999999865388264)" style="font-size: 10px; font-family: Impact; fill: rgb(140, 162, 82);">Docker</text><text text-anchor="middle" transform="translate(99,46)rotate(59.99999955470795)scale(0.9999999865388264,0.9999999865388264)" style="font-size: 10px; font-family: Impact; fill: rgb(181, 207, 107);">Tailscale</text><text text-anchor="middle" transform="translate(-57,107)rotate(-59.99999955470795)scale(0.9999999865388264,0.9999999865388264)" style="font-size: 10px; font-family: Impact; fill: rgb(206, 219, 156);">KubeVirt</text><text text-anchor="middle" transform="translate(-4,57)" style="font-size: 10px; font-family: Impact; fill: rgb(140, 109, 49);">UCloud</text><text text-anchor="middle" transform="translate(-18,-138)" style="font-size: 10px; font-family: Impact; fill: rgb(189, 158, 57);">Let's Encrypt</text><text text-anchor="middle" transform="translate(-67,-83)rotate(30.00000044529205)scale(0.9999999865388264,0.9999999865388264)" style="font-size: 10px; font-family: Impact; fill: rgb(231, 186, 82);">GitHub Pages</text><text text-anchor="middle" transform="translate(-60,-4)rotate(0)scale(1,1)" style="font-size: 10px; font-family: Impact; fill: rgb(231, 203, 148);">SCSS</text><text text-anchor="middle" transform="translate(-176,61)rotate(30.00000044529205)scale(0.9999999865388264,0.9999999865388264)" style="font-size: 10px; font-family: Impact; fill: rgb(132, 60, 57);">Markdown</text><text text-anchor="middle" transform="translate(214,34)rotate(-59.99999955470795)scale(0.9999999865388264,0.9999999865388264)" style="font-size: 10px; font-family: Impact; fill: rgb(173, 73, 74);">Loki</text><text text-anchor="middle" transform="translate(126,79)rotate(59.99999955470795)scale(0.9999999865388264,0.9999999865388264)" style="font-size: 10px; font-family: Impact; fill: rgb(214, 97, 107);">Promtail</text><text text-anchor="middle" transform="translate(39,18)rotate(-59.99999955470795)scale(0.9999999865388264,0.9999999865388264)" style="font-size: 10px; font-family: Impact; fill: rgb(231, 150, 156);">cert-manager</text><text text-anchor="middle" transform="translate(-183,27)rotate(30.00000044529205)scale(0.9999999865388264,0.9999999865388264)" style="font-size: 10px; font-family: Impact; fill: rgb(123, 65, 115);">Linux</text><text text-anchor="middle" transform="translate(29,-77)rotate(-30.000000445292052)scale(0.9999999865388264,0.9999999865388264)" style="font-size: 10px; font-family: Impact; fill: rgb(165, 81, 148);">PostgreSQL</text><text text-anchor="middle" transform="translate(40,77)rotate(30.000000445292052)scale(0.9999999865388264,0.9999999865388264)" style="font-size: 10px; font-family: Impact; fill: rgb(206, 109, 189);">Memcached</text><text text-anchor="middle" transform="translate(-48,17)rotate(59.99999955470795)scale(0.9999999865388264,0.9999999865388264)" style="font-size: 10px; font-family: Impact; fill: rgb(222, 158, 214);">httpd</text><text text-anchor="middle" transform="translate(144,54)rotate(0)scale(1,1)" style="font-size: 10px; font-family: Impact; fill: rgb(57, 59, 121);">Registry</text><text text-anchor="middle" transform="translate(-193,90)rotate(30.00000044529205)scale(0.9999999865388264,0.9999999865388264)" style="font-size: 10px; font-family: Impact; fill: rgb(82, 84, 163);">ACME</text><text text-anchor="middle" transform="translate(31,-22)rotate(-30.00000044529205)scale(0.9999999865388264,0.9999999865388264)" style="font-size: 10px; font-family: Impact; fill: rgb(107, 110, 207);">Cron</text><text text-anchor="middle" transform="translate(104,12)rotate(30.00000044529205)scale(0.9999999865388264,0.9999999865388264)" style="font-size: 10px; font-family: Impact; fill: rgb(156, 158, 222);">Go</text><text text-anchor="middle" transform="translate(144,-92)rotate(-30.000000445292052)scale(0.9999999865388264,0.9999999865388264)" style="font-size: 10px; font-family: Impact; fill: rgb(99, 121, 57);">Terraform</text><text text-anchor="middle" transform="translate(-121,-62)rotate(59.99999955470795)scale(0.9999999865388264,0.9999999865388264)" style="font-size: 10px; font-family: Impact; fill: rgb(140, 162, 82);">Certbot</text><text text-anchor="middle" transform="translate(-233,-10)rotate(30.00000044529205)scale(0.9999999865388264,0.9999999865388264)" style="font-size: 10px; font-family: Impact; fill: rgb(181, 207, 107);">Swagger</text><text text-anchor="middle" transform="translate(61,106)rotate(-30.00000044529205)scale(0.9999999865388264,0.9999999865388264)" style="font-size: 10px; font-family: Impact; fill: rgb(206, 219, 156);">GCP</text><text text-anchor="middle" transform="translate(77,61)rotate(-59.99999955470795)scale(0.9999999865388264,0.9999999865388264)" style="font-size: 10px; font-family: Impact; fill: rgb(140, 109, 49);">Mermaid</text><text text-anchor="middle" transform="translate(94,-117)rotate(-30.00000044529205)scale(0.9999999865388264,0.9999999865388264)" style="font-size: 10px; font-family: Impact; fill: rgb(189, 158, 57);">Unleash</text><text text-anchor="middle" transform="translate(-184,76)rotate(59.99999955470795)scale(0.9999999865388264,0.9999999865388264)" style="font-size: 10px; font-family: Impact; fill: rgb(231, 186, 82);">DinD</text><text text-anchor="middle" transform="translate(229,-61)rotate(-30.00000044529205)scale(0.9999999865388264,0.9999999865388264)" style="font-size: 10px; font-family: Impact; fill: rgb(231, 203, 148);">Reflector</text><text text-anchor="middle" transform="translate(65,-79)rotate(30.00000044529205)scale(0.9999999865388264,0.9999999865388264)" style="font-size: 10px; font-family: Impact; fill: rgb(132, 60, 57);">FUSE</text><text text-anchor="middle" transform="translate(161,-46)rotate(59.99999955470795)scale(0.9999999865388264,0.9999999865388264)" style="font-size: 10px; font-family: Impact; fill: rgb(173, 73, 74);">MinIO</text><text text-anchor="middle" transform="translate(17,-140)rotate(59.99999955470795)scale(0.9999999865388264,0.9999999865388264)" style="font-size: 10px; font-family: Impact; fill: rgb(214, 97, 107);">NFS</text><text text-anchor="middle" transform="translate(200,-107)rotate(-30.00000044529205)scale(0.9999999865388264,0.9999999865388264)" style="font-size: 10px; font-family: Impact; fill: rgb(231, 150, 156);">NFS Provsioner</text><text text-anchor="middle" transform="translate(219,-139)rotate(30.000000445292052)scale(0.9999999865388264,0.9999999865388264)" style="font-size: 10px; font-family: Impact; fill: rgb(123, 65, 115);">Local Path Provisioner</text></g></svg>