<?xml version="1.0" encoding="UTF-8"?>
<svg width="529.28" height="141.44" version="1.1" viewBox="0 0 529.28 141.44" xmlns="http://www.w3.org/2000/svg" xmlns:cc="http://creativecommons.org/ns#" xmlns:dc="http://purl.org/dc/elements/1.1/" xmlns:rdf="http://www.w3.org/1999/02/22-rdf-syntax-ns#">
 <metadata>
  <rdf:RDF>
   <cc:Work rdf:about="">
    <dc:format>image/svg+xml</dc:format>
    <dc:type rdf:resource="http://purl.org/dc/dcmitype/StillImage"/>
    <dc:title/>
   </cc:Work>
  </rdf:RDF>
 </metadata>
 <path d="m35.884 133.31c-10.404-2.2216-21.295-7.7397-30.041-15.221l-2.0583-1.7606 14.998-15.947 4.1874 3.4757c8.5566 7.1023 19.763 10.863 28.11 9.4334 5.356-0.91744 9.5115-3.4839 11.902-7.3508 3.6474-5.8995 2.9036-12.166-2.0237-17.048-3.5556-3.5231-7.791-5.8299-18.995-10.346-4.576-1.8443-10.048-4.2113-12.16-5.26-13.887-6.8953-20.16-16.005-20.16-29.276 0-14.942 8.7156-26.34 24.281-31.753 8.1966-2.8505 21.544-3.0913 31.476-0.56795 4.567 1.1603 14.644 5.8693 17.404 8.1329l1.8015 1.4774-5.5655 7.9951c-3.061 4.3973-5.7828 8.2359-6.0485 8.5301s-2.0279-0.48946-3.916-1.7416c-5.5512-3.6813-10.186-5.0652-17.193-5.1338-7.3851-0.0724-11.781 1.2597-15.331 4.6457-4.8006 4.5785-4.8834 10.899-0.20059 15.316 2.7888 2.6302 6.7513 4.6438 19.708 10.015 17.634 7.3106 24.571 12.484 29.12 21.718 4.8234 9.7914 4.8015 20.447-0.0623 30.357-4.4588 9.0849-11.944 15.38-22.68 19.074-4.4188 1.5204-6.2882 1.7843-13.754 1.9416-5.6156 0.11836-10.096-0.12884-12.8-0.7062zm233.53-0.27716c-3.0313-0.65948-7.9273-2.3398-10.88-3.734-10.49-4.9535-16.93-11.362-21.713-21.61-4.8534-10.398-4.6927-8.6115-4.9372-54.88l-0.21907-41.44h23.037l0.20349 39.52c0.19709 38.277 0.24608 39.645 1.5574 43.497 3.7014 10.873 10.932 16.929 22.462 18.812 11.564 1.8894 24.187-3.6254 29.144-12.733 3.8909-7.1489 3.8839-7.0644 4.1408-49.897l0.23513-39.2h23.029l-0.21964 41.12c-0.21402 40.066-0.25581 41.251-1.6308 46.24-2.4872 9.0246-6.013 15.218-12.234 21.492-4.6942 4.7338-6.399 5.9773-11.584 8.45-8.8436 4.2172-12.672 5.044-24.64 5.3224-8.2807 0.19258-11.295 9e-3 -15.752-0.9609zm142.96-0.71767c-5.6437-3.2366-10.497-10.592-12.723-19.282-1.5541-6.0662-1.0197-15.779 1.1232-20.413 2.1552-4.661 4.8472-7.6442 8.6523-9.5877 2.6761-1.3669 3.9594-1.5831 9.3974-1.5831h6.2981l-0.34572-2.1286c-0.56137-3.4563-3.4728-7.7324-6.6264-9.7323-4.4656-2.832-8.5563-3.4432-14.648-2.1887-11.204 2.3075-27.784 10.308-38.328 18.496-2.0388 1.5832-3.951 2.7277-4.2493 2.5434-0.60027-0.37099-4.3989-5.7626-4.3989-6.2436 0-0.16669 2.232-1.7325 4.96-3.4796 25.305-16.206 55.851-24.78 84.16-23.623l9.44 0.38579 1.2258-2.3746c6.2893-12.183 26.793-14.982 44.496-6.0744 11.71 5.8926 22.937 16.437 30.66 28.797l1.6853 2.6971-2.3935 0.63224c-9.2988 2.4562-28.672 4.7582-40.154 4.7712-14.431 0.0164-22.698-2.6044-29.168-9.2472-2.871-2.9476-6.3517-8.9933-6.3517-11.032 0-2.128-1.897-2.5759-12.164-2.8718-9.0657-0.26127-21.618 0.60943-23.257 1.6133-0.29744 0.18214 0.57295 0.82981 1.9342 1.4393 5.02 2.2475 8.4263 7.0243 10.088 14.146 0.50363 2.1589 1.0364 4.0459 1.1839 4.1934 0.14751 0.1475 1.7899-0.0582 3.6498-0.45704 7.6286-1.636 13.138 0.32402 17.691 6.2943 3.4782 4.5603 4.8931 9.2215 4.9067 16.164 0.0197 10.082-2.9177 18.597-8.4776 24.574-5.2944 5.6914-11.081 6.9396-17.928 3.8671l-3.6525-1.6392-3.0828 1.6392c-4.4484 2.3653-9.1426 2.2635-13.604-0.29495zm-303.53-60.074v-60.872h21.145c11.63 0 23.942 0.30226 27.36 0.67169 30.324 3.2774 49.389 20.843 54.264 49.995 3.477 20.794-4.5997 44.333-19.401 56.542-4.749 3.9172-13.059 8.4077-19.386 10.476-9.1107 2.9779-13.705 3.4136-39.502 3.7454l-24.48 0.31493zm54.556 37.549c6.1735-2.0461 10.193-4.5956 14.682-9.3119 7.0036-7.3591 10.113-15.113 10.581-26.389 0.37036-8.9139-0.63702-13.935-4.3266-21.567-4.5835-9.4801-12.777-16.054-23.394-18.769-4.064-1.0394-7.0882-1.2643-17.001-1.2643h-12.058v79.489l13.28-0.27285c12.126-0.24916 13.711-0.41556 18.236-1.9155zm250.87-65.952c0.64195-7.9974 5.306-16.717 13.293-24.852 8.2321-8.3846 20.425-15.829 33.92-20.71 5.3237-1.9255 18.674-5.5661 19.046-5.1939 0.13068 0.13068-0.77892 1.0129-2.0213 1.9606-3.2407 2.4718-8.5071 9.6191-14.152 19.206-10.334 17.551-17.362 24.169-30.927 29.119-4.4637 1.629-16.362 4.4808-18.694 4.4808-0.57331 0-0.69964-1.0894-0.46513-4.0109z" stroke-width=".64"/>
</svg>
